<?xml version="1.0" encoding="UTF-8"?>
<svg version="1.1" viewBox="0 0 2048 2048" width="200" height="200" xmlns="http://www.w3.org/2000/svg">
<path transform="translate(0)" d="m0 0h2048v2048h-2048z"/>
<path transform="translate(764,394)" d="m0 0h18l19 3 21 7 17 9 24 14 26 15 28 16 24 14 28 16 24 14 78 45 24 14 28 16 71 41 21 12 24 14 52 30 24 14 104 60 24 14 26 15 28 16 52 30 14 9 14 11 9 9 11 15 9 17 7 21 2 12v32l-4 18-7 19-8 14-11 14-12 12-14 10-22 13-26 15-28 16-24 14-52 30-28 16-27 16-25 14-27 16-23 13-24 14-28 16-24 14-78 45-28 16-17 10-26 15-24 14-28 16-24 14-28 16-24 14-28 16-26 15-24 14-18 10-11 5-16 5-18 3h-22l-18-3-18-6-16-8-11-8-10-9-10-10-10-14-8-16-6-17-3-16-1-15v-485l-9-3-10-1-6 3-4 5-3 9v425l-1 17-4 18-5 15-9 19-8 12-13 15-12 10-16 10-16 7-15 4-11 2h-29l-17-3-17-5-16-8-10-8-7-7-8-14-2-5v-13l11 6 15 7 18 6 11 2h15l22-4 18-6 15-8 10-8 9-8 12-16 9-16 8-20 4-16 3-28 1-384 1-47 3-6 6-5h11l33 15 38 17 80 35 14 4 10-1 113-49 28-12 4-1h9l6 3 4 5 2 5v232l-3 2-20 5-16 6-17 9-11 8-11 9-7 7-8 10-9 14-8 16-6 19-3 14-1 9v21l4 18 7 16 8 11 9 9 16 9 13 4 6 1h25l17-4 20-8 13-8 11-9 6-5 9-11 9-12 8-13 8-17 6-21 3-20 2-22 1-35v-438l-3-10-6-8-6-5-11-4h-9l-13 4-69 31-35 16-36 16-41 19-17 7-4 1h-10l-17-7-32-15-18-8-33-15-16-8v-167l3-22 7-21 10-19 7-9 11-12 10-9 15-10 15-7 16-5z" fill="#FEFFFE"/>
<path transform="translate(1332,811)" d="m0 0h77v63l-1 1h-53l-4 1-2 6 1 7 4 3 55 1v54l-56 1-4 6 1 7 3 3 2 1 54 1v63l-1 1h-38l-40-1-14-4-11-6-9-8-9-14-4-12-3-18v-93l3-18 4-12 7-12 6-7 10-7 12-5z"/>
<path transform="translate(1171,811)" d="m0 0h78v63l-1 1h-53l-3 1-3 5v6l4 5 56 1v54l-55 1-5 5v7l3 4 4 1 53 1v63l-1 1h-64l-19-2-13-5-9-6-7-6-7-11-5-11-3-15-1-17v-74l1-17 4-17 8-16 5-6 10-8 11-5z"/>
<path transform="translate(593,1570)" d="m0 0 5 1 12 40 5 17 7-23 10-33 1-1h31v98l-1 1h-22v-57-3l-9 31-8 26-2 3h-14l-3-6-16-54-1-7 1 16v51h-22l-1-1v-98z" fill="#FDFEFD"/>
<path transform="translate(1078,1570)" d="m0 0 4 2 9 30 7 24v3h2l1-8 6-20 8-27 2-3h30l1 1v97l-1 1h-22v-58-3l-4 15-12 39-3 7h-14l-2-2-12-41-5-17-1-5 1 17v48h-23v-99z" fill="#FDFEFD"/>
<path transform="translate(788,1570)" d="m0 0h18l15 1 11 4 5 4 5 8 3 12v39l-3 14-6 10-9 6-9 2h-47v-99z"/>
<path transform="translate(932,1571)" d="m0 0h31l5 18 20 76 1 4-1 1h-25l-5-24-23-1-1 10-3 15h-24l-1-2 12-47 11-42z"/>
<path transform="translate(1173,1571)" d="m0 0h24l1 74 3 5 3 1h13l3-1 2-9v-69l1-1h24v71l-2 12-6 8-10 6-10 2h-22l-12-4-6-5-5-10-1-5z" fill="#FEFFFE"/>
<path transform="translate(1293,1568)" d="m0 0h20l11 4 7 6 4 7 2 10-1 5-1 1h-21l-1-1-1-11-3-4-3-1h-7l-5 3-1 7 5 6 22 13 12 9 5 8 2 7v7l-4 13-8 8-9 4-6 1h-21l-11-4-7-7-4-8-1-4v-14l1-1h22l1 1 1 16 2 4 3 1h10l5-4 1-8-2-5-9-7-20-12-9-8-4-7-1-4v-8l3-9 6-8 10-5z" fill="#FEFFFE"/>
<path transform="translate(689,1571)" d="m0 0h61v17h-37v21h34l1 17-2 1h-33v26l7-1h30l1 1v17h-62z" fill="#FEFFFE"/>
<path transform="translate(1432,1568)" d="m0 0h20l10 3 7 5 5 8 3 11v8l-3 1h-21l-2-14-3-5-2-1h-8l-5 5-1 7v46l2 9 4 3h8l4-2 2-7 1-13h23l1 1v12l-4 11-7 8-4 3-11 3h-19l-11-4-8-7-4-8-2-8-1-10v-32l3-14 4-8 8-7 6-3z" fill="#FEFFFE"/>
<path transform="translate(1068,1575)" d="m0 0h8l9 28 11 35 2 5 2 1 3-10 13-41 5-17 3-1h16l1 1v89l-8 1-2-1-1-77-3-1-12 36-11 35-3 7-4 1-4-9-13-42-9-27-3-1-1 20v58h-11v-89z"/>
<path transform="translate(582,1575)" d="m0 0h10l3 9 16 50 3 10 2-1 11-33 10-34 2-1h17l1 1v89l-2 1h-6l-2-1v-78h-5l-2 9-16 50-6 18-4 2-2-1-12-38-10-32-4-8h-2l-1 78h-10v-89z"/>
<path transform="translate(886,1570)" d="m0 0 4 1v98l-1 1h-23l-1-1v-97l1-1z" fill="#FEFFFE"/>
<path transform="translate(1380,1570)" d="m0 0 4 1v98l-1 1h-23l-1-79 1-20z" fill="#FEFFFE"/>
<path transform="translate(1180,1575)" d="m0 0h10l1 3v64l3 9 5 4 13 2 9-2 5-5 2-5 1-69 1-1h10v73l-3 8-8 6-9 3h-21l-11-4-5-5-3-7-1-10v-63z"/>
<path transform="translate(932,1571)" d="m0 0h31l5 18 20 76 1 4-1 1h-25l-5-24-23-1-1 10-3 15h-24l-1-2 12-47 11-42zm19 4-15 1-10 40-12 45-1 4 12 1 2-8 3-18 33 1 4 22 1 2h13l-4-16-19-73z" fill="#FEFFFE"/>
<path transform="translate(1294,1573)" d="m0 0h17l10 4 5 5 4 8 1 6h-11l-1-1-2-9-5-5-6-2h-8l-7 3-4 6v8l4 6 14 9 15 9 9 8 3 8v11l-3 8-5 5-8 4-4 1h-19l-10-4-7-8-2-9v-7h11l1 2v9l3 6 5 4 3 1h12l6-3 4-4 1-3v-11l-5-7-15-10-15-9-7-7-2-4v-13l3-6 7-6z"/>
<path transform="translate(732,1575)" d="m0 0h10l2 1v7l-38 1 1 29 34 1 1 1v6l-1 1-34 1-1 34h37l2 1v7h-49v-89z"/>
<path transform="translate(1434,1573)" d="m0 0h18l9 4 6 7 3 10v5h-11l-3-12-3-5-7-3h-8l-7 3-3 4-2 6-1 11v31l2 15 4 7 7 3h9l6-3 4-5 3-14h11l-1 11-3 7-4 5-8 4-4 1h-18l-8-3-7-6-3-6-2-10v-41l3-12 4-7 9-6z"/>
<path transform="translate(788,1570)" d="m0 0h18l15 1 11 4 5 4 5 8 3 12v39l-3 14-6 10-9 6-9 2h-47v-99zm1 5-12 1v89h41l9-3 5-4 4-8 2-9 1-15v-22l-2-12-4-8-7-6-7-2-10-1z" fill="#FEFFFE"/>
<path transform="translate(794,1586)" d="m0 0h16l6 3 4 8 1 8v30l-2 12-4 6-4 2h-17z"/>
<path transform="translate(789,1581)" d="m0 0h22l8 3 5 6 3 9v42l-3 10-6 7-7 2h-22l-1-1v-76zm5 5v69h17l5-3 3-5 2-12v-30l-2-11-4-6-5-2z" fill="#FEFFFE"/>
<path transform="translate(1368,1575)" d="m0 0h8l1 1v89l-9 1-2-1v-89z"/>
<path transform="translate(876,1575)" d="m0 0h6l1 1v89h-11v-89z"/>
<path transform="translate(945,1583)" d="m0 0 4 1 6 20 7 28h-30l2-10 7-27 3-11z" fill="#FEFFFE"/>
<path transform="translate(946,1596)" d="m0 0 2 4 6 23v4h-15l2-9z"/>
</svg>
